<?xml version="1.0" encoding="utf-8"?>
<!-- Generator: Adobe Illustrator 23.0.0, SVG Export Plug-In . SVG Version: 6.00 Build 0)  -->
<svg version="1.1" id="Capa_1" xmlns="http://www.w3.org/2000/svg" xmlns:xlink="http://www.w3.org/1999/xlink" x="0px" y="0px"
	 viewBox="0 0 791.4 254" style="enable-background:new 0 0 791.4 254;" xml:space="preserve">
<style type="text/css">
	.st0{fill:#1789FC;}
	.st1{fill:#283235;}
</style>
<g>
	<g>
		<path class="st0" d="M85.1,6.1L140.4,38c7.7,4.5,17.2,4.5,25,0l55.2-31.9c3.9-2.2,8.6-2.2,12.5,0l49,28.3c8.3,4.8,8.3,16.8,0,21.6
			l-116.7,67.4c-7.7,4.5-17.2,4.5-25,0L23.6,56c-8.3-4.8-8.3-16.8,0-21.6l49-28.3C76.5,3.9,81.2,3.9,85.1,6.1z"/>
		<g>
			<path class="st1" d="M4.9,93.7v107.8c0,8.9,4.8,17.2,12.5,21.6l42.8,24.7c8.3,4.8,18.7-1.2,18.7-10.8v-96c0-7.3-3.2-14.3-8.8-19
				L25.5,84.2C17.3,77.4,4.9,83.1,4.9,93.7z"/>
		</g>
		<g>
			<path class="st1" d="M226.8,141v96c0,9.6,10.4,15.6,18.7,10.8l42.8-24.7c7.7-4.5,12.5-12.7,12.5-21.6V93.7
				c0-10.6-12.4-16.4-20.5-9.5L235.6,122C230,126.7,226.8,133.7,226.8,141z"/>
		</g>
	</g>
	<g>
		<g>
			<g>
				<path class="st1" d="M360.3,201.6h67.8c2,0,3.6-1.6,3.6-3.6v-12.9c0-2-1.6-3.6-3.6-3.6h-53.5c-1.9,0-3.8,0.8-5.2,2.2l-11.7,11.8
					C355.4,197.7,357,201.6,360.3,201.6z"/>
			</g>
			<g>
				<path class="st1" d="M357.7,87.5l11.7,11.8c1.4,1.4,3.2,2.1,5.2,2.1h53.5c2,0,3.6-1.6,3.6-3.6V84.9c0-2-1.6-3.6-3.6-3.6h-67.8
					C357,81.3,355.4,85.2,357.7,87.5z"/>
			</g>
			<g>
				<path class="st1" d="M355.2,151.5h72.9c2,0,3.6-1.6,3.6-3.6v-12.7c0-2-1.6-3.6-3.6-3.6h-72.9c-2,0-3.6,1.6-3.6,3.6v12.7
					C351.5,149.9,353.2,151.5,355.2,151.5z"/>
			</g>
		</g>
		<g>
			<path class="st1" d="M462.9,86.7c-1.4-2.4,0.3-5.5,3.1-5.5h46.5c11,0,20.5,3.9,28.3,11.7c7.8,8,11.7,17.3,11.7,28.3
				c0,8.4-2.3,16-7.1,22.7c-4.7,6.8-10.5,11.6-17.6,14.4l21.6,37.7c1.4,2.4-0.4,5.4-3.2,5.4h-12.5c-2.6,0-5-1.4-6.3-3.6l-29.6-51.2
				c-1.4-2.4,0.4-5.5,3.2-5.5l11.5,0.1c5.4,0,10.1-2,14-5.9c4.1-3.9,6-8.7,6-14.3c0-5.4-2-10.1-6-14c-3.9-3.9-8.6-5.9-14-5.9h-36.9
				c-2.6,0-5-1.4-6.3-3.6L462.9,86.7z"/>
		</g>
		<path class="st0" d="M619.9,146.6l48.8,48.8c2.3,2.3,0.7,6.2-2.6,6.2h-16.5c-1.9,0-3.8-0.8-5.1-2.1l-49.9-49.6l-3.2-3.1
			c-2.9-2.8-2.9-7.5,0-10.3l3.2-3.2l49.9-49.8c1.4-1.4,3.2-2.1,5.1-2.1h16.5c3.2,0,4.9,3.9,2.6,6.2l-48.8,48.8
			C617.1,139.1,617.1,143.7,619.9,146.6z M594.6,133.1"/>
		<g>
			<g>
				<path class="st1" d="M715.1,201.6h67.8c2,0,3.6-1.6,3.6-3.6v-12.9c0-2-1.6-3.6-3.6-3.6h-53.5c-1.9,0-3.8,0.8-5.2,2.2l-11.7,11.8
					C710.2,197.7,711.8,201.6,715.1,201.6z"/>
			</g>
			<g>
				<path class="st1" d="M710,151.5h72.9c2,0,3.6-1.6,3.6-3.6v-12.7c0-2-1.6-3.6-3.6-3.6H710c-2,0-3.6,1.6-3.6,3.6v12.7
					C706.3,149.9,708,151.5,710,151.5z"/>
			</g>
			<g>
				<path class="st1" d="M712.5,87.5l11.7,11.8c1.4,1.4,3.2,2.1,5.2,2.1h53.5c2,0,3.6-1.6,3.6-3.6V84.9c0-2-1.6-3.6-3.6-3.6h-67.8
					C711.8,81.3,710.2,85.2,712.5,87.5z"/>
			</g>
		</g>
	</g>
</g>
</svg>
