<?xml version="1.0" encoding="utf-8"?>
<!-- Generator: Adobe Illustrator 22.1.0, SVG Export Plug-In . SVG Version: 6.00 Build 0)  -->
<svg version="1.1" id="Capa_1" xmlns="http://www.w3.org/2000/svg" xmlns:xlink="http://www.w3.org/1999/xlink" x="0px" y="0px"
	 viewBox="0 0 693 183.4" style="enable-background:new 0 0 693 183.4;" xml:space="preserve">
<style type="text/css">
	.st0{fill:#FFFFFF;}
</style>
<g>
	<polygon class="st0" points="0,0 78.8,0 78.8,23.2 51.8,23.2 51.8,174.4 27.1,174.4 27.1,23.2 0,23.2 	"/>
	<rect x="90.4" y="19.3" class="st0" width="23.7" height="26.5"/>
	<rect x="90.4" y="61.8" class="st0" width="23.7" height="112.6"/>
	<path class="st0" d="M137.5,31.3h24.1v30.5h16v21.8h-16v68.8h16v21.9H149c-6.4,0-11.5-5.2-11.5-11.5V83.6H126V61.7h11.4V31.3z"/>
	<path class="st0" d="M248.9,61.8h-46.6c-6.4,0-11.7,5.2-11.7,11.7v89.2c0,6.4,5.2,11.7,11.7,11.7h46.6c6.4,0,11.7-5.2,11.7-11.7
		V73.4C260.6,67,255.3,61.8,248.9,61.8z M237.1,152.4h-22.7V83.6h22.7V152.4z"/>
	<path class="st0" d="M277.7,61.8v112.5l24.1,0.1V83.6l22.5,0v90.7l24.1,0.1V73.3c0-6.4-3.7-10.5-8.8-11.5c-1.3-0.3-10.6,0-11.9,0.2
		l-25.9,3.8v-4L277.7,61.8z"/>
	<path class="st0" d="M387.4,116.8h-24.7l0,44.2c0,7.4,6,13.4,13.4,13.4h52.3c7.4,0,13.4-6,13.4-13.4v-44.8c0-5.7-2.3-11.1-6.3-15.1
		l-46.2-45.7c-1.2-1.2-1.8-2.8-1.8-4.4V22.2h29.7v32.7h24.7V13.6c0-7.5-6.1-13.6-13.6-13.6l-51.9,0c-7.5,0-13.6,6.1-13.6,13.6v39.8
		c0,6.8,2.7,13.3,7.5,18.1l44.9,44.6c1.3,1.3,2,3,2,4.7v31.6h-29.7V116.8z"/>
	<g>
		<circle class="st0" cx="500.9" cy="88.2" r="7.2"/>
		<circle class="st0" cx="481.7" cy="111.6" r="7.2"/>
		<path class="st0" d="M584.4,111h-35.2c-2.7,0-5.2-1.4-6.7-3.7L532.5,92c-0.7-1.1-1.9-1.7-3.2-1.7l-12.9,0c-2.1,0-3.9,1.2-4.8,3.1
			c-1.9,4-6,6.7-10.7,6.7c-6.8,0-12.2-5.7-11.8-12.5c0.3-6.2,5.7-11.2,11.9-11.2c4.7,0,8.7,2.7,10.6,6.7c0.9,1.9,2.8,3.1,4.8,3.1
			l12.9,0c2.7,0,5.2,1.4,6.7,3.7l9.9,15.4c0.7,1.1,1.9,1.7,3.2,1.7h36c0.6,0,1.1-0.5,1-1.1c-4.3-33.8-33.2-60-68.2-59.9
			c-37.4,0-68.2,30.4-68.7,67.8c-0.5,38.4,30.5,69.8,68.8,69.8c32.8,0,60.2-22.9,67.1-53.6c0.1-0.6-0.3-1.2-1-1.2h-25
			c-3.5,0-6.8,1.6-9,4.3l-3.2,4c-3,3.7-7.5,5.9-12.2,5.9h-5.8c-2.4,0-4.7,1.3-5.8,3.5c-2,3.7-5.9,6.3-10.5,6.3
			c-6.8,0-12.2-5.7-11.8-12.5c0.3-6.2,5.7-11.2,11.9-11.2c4.5,0,8.4,2.6,10.4,6.3c1.2,2.2,3.4,3.5,5.8,3.5h5.8c3.5,0,6.8-1.6,9-4.3
			l3.2-4c3-3.7,7.5-5.9,12.2-5.9h25c1.2,0,2.1-0.9,2.3-2l0,0c0.2-1.3-0.9-2.5-2.2-2.5h-58.4c-2.4,0-4.9-0.6-7-1.8l-6-3.3
			c-1.5-0.8-3.2-1.3-5-1.3h-10.2c-2.2,0-4.1,1.3-5.1,3.3c-1.9,4-6,6.7-10.7,6.7c-6.8,0-12.2-5.7-11.8-12.5
			c0.3-6.2,5.6-11.2,11.8-11.2c4.6,0,8.6,2.6,10.5,6.4c1,1.9,2.9,3.1,5,3.1h10.4c2.4,0,4.9,0.6,7,1.8l6,3.3c1.5,0.8,3.2,1.3,5,1.3
			h58.8c1.3,0,2.3-1,2.3-2.3l0,0C586.6,112,585.6,111,584.4,111z"/>
		<circle class="st0" cx="512.5" cy="140.6" r="7.2"/>
	</g>
	<path class="st0" d="M639.2,0v22.3h-17.8v39.5h15.4v21.8h-15.4v90.8l-23.9,0V83.6h-10.8V61.8h10.8V12.1c0-6.7,5.4-12,12-12H639.2z"
		/>
	<path class="st0" d="M653.6,31.3h23.9v30.5H693v21.8h-15.5v68.8H693v22h-27.3c-6.7,0-12.1-5.4-12.1-12.1l0-78.7l-11.4,0.1V61.8
		h11.5L653.6,31.3z"/>
</g>
</svg>
